<svg width="166" height="166" viewBox="0 0 166 166" fill="none" xmlns="http://www.w3.org/2000/svg">
<rect width="166" height="166" rx="36" fill="#17201B"/>
<path d="M48 45H88C104.569 45 118 58.4315 118 75V121H48V45Z" fill="#F3C76A"/>
<path d="M62 45V35C62 28.3726 67.3726 23 74 23H92C98.6274 23 104 28.3726 104 35V45" stroke="#F3C76A" stroke-width="14" stroke-linecap="round"/>
<path d="M66 78H98" stroke="#17201B" stroke-width="8" stroke-linecap="round"/>
<path d="M66 99H90" stroke="#17201B" stroke-width="8" stroke-linecap="round"/>
<path d="M38 121C55 103 73 101 88 111C103 121 119 113 132 93" stroke="#17201B" stroke-width="13" stroke-linecap="round" stroke-linejoin="round"/>
<circle cx="38" cy="121" r="13" fill="#17201B"/>
<circle cx="88" cy="111" r="13" fill="#17201B"/>
<circle cx="132" cy="93" r="13" fill="#17201B"/>
<path d="M125 93L131 99L143 86" stroke="#F3C76A" stroke-width="7" stroke-linecap="round" stroke-linejoin="round"/>
</svg>
